<svg width="521" height="89" viewBox="0 0 521 89" fill="none" xmlns="http://www.w3.org/2000/svg">
<path d="M100.375 69.275C88.225 69.275 81.25 62.6 81.25 50.825H89.875C89.875 57.65 93.775 61.775 100.3 61.775C106 61.775 109.15 59.15 109.15 54.425C109.15 50.45 107.275 48.425 101.35 46.025L92.8 42.575C86.2 40.025 82.75 35.3 82.75 28.625C82.75 20.075 89.65 14.225 99.55 14.225C109.975 14.225 116.875 20.75 116.875 30.65H108.25C108.25 24.875 105.1 21.575 99.25 21.575C94.3 21.575 91.45 24.125 91.45 28.1C91.45 31.7 94 34.1 100.15 36.575L107.875 39.725C114.475 42.425 117.775 47.075 117.775 54.2C117.775 63.2 110.8 69.275 100.375 69.275ZM140.182 68.9C128.932 68.9 123.007 60.8 123.007 50.525C123.007 40.25 129.532 32.15 140.407 32.15C145.057 32.15 149.257 34.25 151.432 37.775V33.05H159.532V68H151.432V63.275C149.257 66.8 144.457 68.9 140.182 68.9ZM141.382 61.625C148.357 61.625 151.732 56.525 151.732 50.525C151.732 44.525 148.357 39.425 141.382 39.425C135.007 39.425 131.182 44.15 131.182 50.525C131.182 56.9 135.007 61.625 141.382 61.625ZM178.192 68H170.017V33.05H178.192V37.925C179.692 34.7 183.367 32.15 187.942 32.15C194.317 32.15 197.467 34.925 198.967 38.375C200.617 34.85 204.742 32.15 209.692 32.15C220.192 32.15 222.292 39.35 222.292 45.875V68H214.117V47.45C214.117 41.675 211.867 39.125 207.592 39.125C203.467 39.125 200.242 41.15 200.242 49.475V68H192.067V47.375C192.067 41.6 189.967 39.125 185.692 39.125C181.567 39.125 178.192 41.15 178.192 49.475V68ZM240.594 68H232.419V33.05H240.594V37.925C242.094 34.7 245.769 32.15 250.344 32.15C256.719 32.15 259.869 34.925 261.369 38.375C263.019 34.85 267.144 32.15 272.094 32.15C282.594 32.15 284.694 39.35 284.694 45.875V68H276.519V47.45C276.519 41.675 274.269 39.125 269.994 39.125C265.869 39.125 262.644 41.15 262.644 49.475V68H254.469V47.375C254.469 41.6 252.369 39.125 248.094 39.125C243.969 39.125 240.594 41.15 240.594 49.475V68ZM310.646 68.9C299.096 68.9 292.196 60.8 292.196 50.525C292.196 40.25 299.096 32.15 310.646 32.15C322.196 32.15 329.096 40.25 329.096 50.525C329.096 60.8 322.196 68.9 310.646 68.9ZM310.646 61.625C317.246 61.625 320.921 56.9 320.921 50.525C320.921 44.15 317.246 39.425 310.646 39.425C304.046 39.425 300.371 44.15 300.371 50.525C300.371 56.9 304.046 61.625 310.646 61.625ZM356.811 32.15C366.786 32.15 373.461 39.5 373.461 50.525C373.461 61.325 366.411 68.9 356.286 68.9C351.636 68.9 347.211 66.65 345.036 63.275V68H336.936V15.5H345.036V37.775C347.211 34.4 351.861 32.15 356.811 32.15ZM355.086 61.625C361.086 61.625 365.286 57.05 365.286 50.525C365.286 44 361.086 39.425 355.086 39.425C348.936 39.425 344.736 43.925 344.736 50.525C344.736 57.125 348.936 61.625 355.086 61.625ZM395.87 68.9C384.62 68.9 378.695 60.8 378.695 50.525C378.695 40.25 385.22 32.15 396.095 32.15C400.745 32.15 404.945 34.25 407.12 37.775V33.05H415.22V68H407.12V63.275C404.945 66.8 400.145 68.9 395.87 68.9ZM397.07 61.625C404.045 61.625 407.42 56.525 407.42 50.525C407.42 44.525 404.045 39.425 397.07 39.425C390.695 39.425 386.87 44.15 386.87 50.525C386.87 56.9 390.695 61.625 397.07 61.625ZM451.505 37.775V15.5H459.605V68H451.505V63.275C449.33 66.8 444.53 68.9 440.255 68.9C429.005 68.9 423.08 60.8 423.08 50.525C423.08 40.25 429.605 32.15 440.48 32.15C445.13 32.15 449.33 34.25 451.505 37.775ZM441.455 61.625C448.43 61.625 451.805 56.525 451.805 50.525C451.805 44.525 448.43 39.425 441.455 39.425C435.08 39.425 431.255 44.15 431.255 50.525C431.255 56.9 435.08 61.625 441.455 61.625ZM474.14 28.025C470.54 28.025 468.065 25.325 468.065 21.95C468.065 18.575 470.54 15.875 474.14 15.875C477.74 15.875 480.215 18.575 480.215 21.95C480.215 25.325 477.74 28.025 474.14 28.025ZM478.19 68H470.09V33.05H478.19V68Z" fill="#212121"/>
<path d="M31.2342 36.6554L24.0382 42.0609C20.2096 44.9368 14.913 44.8305 11.2029 41.8032C7.92669 39.1299 6.59271 34.7407 7.82729 30.6966L10.4551 22.0886C12.1786 16.4427 17.4067 12.5999 23.3098 12.64C36.0835 12.7269 41.4477 28.9833 31.2342 36.6554Z" fill="#212121"/>
<path d="M36.7047 44.4945L43.844 39.0144C47.6424 36.0986 52.9399 36.1498 56.6813 39.1383C59.9852 41.7773 61.3648 46.1524 60.1724 50.2092L57.6345 58.844C55.9698 64.5076 50.782 68.4047 44.8789 68.426C32.1049 68.4722 26.5717 52.2726 36.7047 44.4945Z" fill="#2D6BDF"/>
</svg>
