<svg width="720" height="720" viewBox="0 0 720 720" fill="none" xmlns="http://www.w3.org/2000/svg">
<rect width="720" height="720" rx="360" fill="#060606"/>
<path d="M343.02 335.665L299.516 368.345C276.369 385.732 244.348 385.089 221.918 366.787C202.111 350.626 194.046 324.09 201.51 299.64L217.397 247.6C227.817 213.467 259.424 190.235 295.112 190.477C372.337 191.003 404.767 289.283 343.02 335.665Z" fill="white"/>
<path d="M376.092 383.058L419.254 349.927C442.218 332.3 474.244 332.609 496.863 350.676C516.837 366.631 525.178 393.081 517.969 417.607L502.626 469.81C492.562 504.05 461.198 527.61 425.51 527.739C348.283 528.018 314.832 430.081 376.092 383.058Z" fill="#2D6BDF"/>
</svg>
